<?xml version="1.0" encoding="UTF-8" standalone="no"?>
<!-- Created with Inkscape (http://www.inkscape.org/) -->

<svg
   width="50"
   height="50"
   viewBox="0 0 13.229166 13.229167"
   version="1.1"
   id="svg5"
   inkscape:version="1.2 (dc2aedaf03, 2022-05-15)"
   sodipodi:docname="ring_50_8.svg"
   xmlns:inkscape="http://www.inkscape.org/namespaces/inkscape"
   xmlns:sodipodi="http://sodipodi.sourceforge.net/DTD/sodipodi-0.dtd"
   xmlns="http://www.w3.org/2000/svg"
   xmlns:svg="http://www.w3.org/2000/svg">
  <sodipodi:namedview
     id="namedview7"
     pagecolor="#ffffff"
     bordercolor="#000000"
     borderopacity="0.25"
     inkscape:showpageshadow="2"
     inkscape:pageopacity="0.0"
     inkscape:pagecheckerboard="0"
     inkscape:deskcolor="#d1d1d1"
     inkscape:document-units="px"
     showgrid="false"
     inkscape:zoom="11.313708"
     inkscape:cx="31.510447"
     inkscape:cy="24.085826"
     inkscape:window-width="1920"
     inkscape:window-height="1051"
     inkscape:window-x="2391"
     inkscape:window-y="-9"
     inkscape:window-maximized="1"
     inkscape:current-layer="layer1" />
  <defs
     id="defs2" />
  <g
     inkscape:label="Layer 1"
     inkscape:groupmode="layer"
     id="layer1">
    <path
       id="path10429"
       style="fill:#ffffff;stroke-width:1.26304;stroke-linecap:round;stroke-linejoin:round"
       d="M 6.6145832 0 A 6.614583 6.614583 0 0 0 0 6.6145832 A 6.614583 6.614583 0 0 0 6.6145832 13.229166 A 6.614583 6.614583 0 0 0 13.229166 6.6145832 A 6.614583 6.614583 0 0 0 6.6145832 0 z M 6.6145832 1.0583333 A 5.5562501 5.5562501 0 0 1 12.170833 6.6145832 A 5.5562501 5.5562501 0 0 1 6.6145832 12.170833 A 5.5562501 5.5562501 0 0 1 1.0583333 6.6145832 A 5.5562501 5.5562501 0 0 1 6.6145832 1.0583333 z " />
  </g>
</svg>
