<?xml version="1.0" encoding="UTF-8" standalone="no"?>
<!-- Created with Inkscape (http://www.inkscape.org/) -->

<svg
   width="100"
   height="8"
   viewBox="0 0 26.458332 2.1166667"
   version="1.1"
   id="svg5"
   inkscape:version="1.2 (dc2aedaf03, 2022-05-15)"
   sodipodi:docname="outline.svg"
   xmlns:inkscape="http://www.inkscape.org/namespaces/inkscape"
   xmlns:sodipodi="http://sodipodi.sourceforge.net/DTD/sodipodi-0.dtd"
   xmlns="http://www.w3.org/2000/svg"
   xmlns:svg="http://www.w3.org/2000/svg">
  <sodipodi:namedview
     id="namedview7"
     pagecolor="#ffffff"
     bordercolor="#000000"
     borderopacity="0.25"
     inkscape:showpageshadow="2"
     inkscape:pageopacity="0.0"
     inkscape:pagecheckerboard="0"
     inkscape:deskcolor="#d1d1d1"
     inkscape:document-units="px"
     showgrid="false"
     inkscape:zoom="11.313708"
     inkscape:cx="51.928154"
     inkscape:cy="2.784233"
     inkscape:window-width="2400"
     inkscape:window-height="1321"
     inkscape:window-x="-9"
     inkscape:window-y="-9"
     inkscape:window-maximized="1"
     inkscape:current-layer="layer1" />
  <defs
     id="defs2" />
  <g
     inkscape:label="Layer 1"
     inkscape:groupmode="layer"
     id="layer1">
    <path
       id="rect3649-6-4"
       style="fill:#000000;stroke-width:0.851649;stroke-linecap:round;stroke-linejoin:round"
       d="M 0.24546305 0 C 0.10961626 -1.9583081e-17 0 0.10961626 0 0.24546305 L 0 1.8712036 C -1.9583081e-17 2.0070504 0.10961626 2.1166666 0.24546305 2.1166666 L 26.21287 2.1166666 C 26.348717 2.1166666 26.458333 2.0070504 26.458333 1.8712036 L 26.458333 0.24546305 C 26.458333 0.10961626 26.348717 0 26.21287 0 L 0.24546305 0 z M 0.44855142 0.26458333 L 26.009781 0.26458333 C 26.111667 0.26458333 26.19375 0.34666634 26.19375 0.44855142 L 26.19375 1.6681152 C 26.19375 1.7700003 26.111667 1.8520833 26.009781 1.8520833 L 0.44855142 1.8520833 C 0.34666634 1.8520833 0.26458333 1.7700003 0.26458333 1.6681152 L 0.26458333 0.44855142 C 0.26458333 0.34666634 0.34666634 0.26458333 0.44855142 0.26458333 z " />
  </g>
</svg>
