<?xml version="1.0" encoding="UTF-8" standalone="no"?>
<!-- Created with Inkscape (http://www.inkscape.org/) -->

<svg
   width="128"
   height="128"
   viewBox="0 0 33.866666 33.866666"
   version="1.1"
   id="svg5"
   inkscape:version="1.2 (dc2aedaf03, 2022-05-15)"
   sodipodi:docname="ring.svg"
   xmlns:inkscape="http://www.inkscape.org/namespaces/inkscape"
   xmlns:sodipodi="http://sodipodi.sourceforge.net/DTD/sodipodi-0.dtd"
   xmlns="http://www.w3.org/2000/svg"
   xmlns:svg="http://www.w3.org/2000/svg">
  <sodipodi:namedview
     id="namedview7"
     pagecolor="#ffffff"
     bordercolor="#000000"
     borderopacity="0.25"
     inkscape:showpageshadow="2"
     inkscape:pageopacity="0.0"
     inkscape:pagecheckerboard="0"
     inkscape:deskcolor="#d1d1d1"
     inkscape:document-units="px"
     showgrid="false"
     inkscape:zoom="4.5153252"
     inkscape:cx="95.784906"
     inkscape:cy="41.746716"
     inkscape:window-width="1920"
     inkscape:window-height="1051"
     inkscape:window-x="2391"
     inkscape:window-y="-9"
     inkscape:window-maximized="1"
     inkscape:current-layer="layer1" />
  <defs
     id="defs2" />
  <g
     inkscape:label="Layer 1"
     inkscape:groupmode="layer"
     id="layer1">
    <path
       id="path2191"
       style="fill:#000000;stroke-width:1.05833;stroke-linecap:round;stroke-linejoin:round"
       d="M 16.933333 3.7041666 A 13.229166 13.229166 0 0 0 3.7041666 16.933333 A 13.229166 13.229166 0 0 0 16.933333 30.162499 A 13.229166 13.229166 0 0 0 30.162499 16.933333 A 13.229166 13.229166 0 0 0 16.933333 3.7041666 z M 16.933333 5.0270832 A 11.90625 11.90625 0 0 1 28.839583 16.933333 A 11.90625 11.90625 0 0 1 16.933333 28.839583 A 11.90625 11.90625 0 0 1 5.0270832 16.933333 A 11.90625 11.90625 0 0 1 16.933333 5.0270832 z " />
  </g>
</svg>
