<?xml version="1.0" encoding="UTF-8" standalone="no"?>
<!-- Created with Inkscape (http://www.inkscape.org/) -->

<svg
   width="200"
   height="200"
   viewBox="0 0 52.916665 52.916665"
   version="1.1"
   id="svg5"
   inkscape:version="1.2 (dc2aedaf03, 2022-05-15)"
   sodipodi:docname="sword.svg"
   inkscape:export-filename="sword.png"
   inkscape:export-xdpi="96"
   inkscape:export-ydpi="96"
   xmlns:inkscape="http://www.inkscape.org/namespaces/inkscape"
   xmlns:sodipodi="http://sodipodi.sourceforge.net/DTD/sodipodi-0.dtd"
   xmlns="http://www.w3.org/2000/svg"
   xmlns:svg="http://www.w3.org/2000/svg">
  <sodipodi:namedview
     id="namedview7"
     pagecolor="#ffffff"
     bordercolor="#000000"
     borderopacity="0.25"
     inkscape:showpageshadow="2"
     inkscape:pageopacity="0.0"
     inkscape:pagecheckerboard="0"
     inkscape:deskcolor="#d1d1d1"
     inkscape:document-units="px"
     showgrid="true"
     showguides="true"
     inkscape:zoom="3.0930415"
     inkscape:cx="67.732683"
     inkscape:cy="103.943"
     inkscape:window-width="1920"
     inkscape:window-height="1051"
     inkscape:window-x="-9"
     inkscape:window-y="-9"
     inkscape:window-maximized="1"
     inkscape:current-layer="layer1"
     inkscape:lockguides="true">
    <inkscape:grid
       type="xygrid"
       id="grid225"
       originx="26.458333"
       originy="26.458333" />
  </sodipodi:namedview>
  <defs
     id="defs2">
    <linearGradient
       id="linearGradient3272"
       inkscape:swatch="solid">
      <stop
         style="stop-color:#ffffff;stop-opacity:1;"
         offset="0"
         id="stop3270" />
    </linearGradient>
  </defs>
  <g
     inkscape:label="ring"
     inkscape:groupmode="layer"
     id="layer1-2"
     transform="matrix(0.88888889,0,0,0.88888889,3.9197523,3.9197523)"
     style="display:none">
    <path
       id="path65-3"
       style="display:inline;fill:#000000;stroke-width:0.264368"
       d="M 25.355903,-1.4331589 A 26.789062,26.789062 0 0 0 -1.4331589,25.355903 26.789062,26.789062 0 0 0 25.355903,52.144965 26.789062,26.789062 0 0 0 52.144965,25.355903 26.789062,26.789062 0 0 0 25.355903,-1.4331589 Z m 0,2.9762717 A 23.812499,23.812499 0 0 1 49.168258,25.355903 23.812499,23.812499 0 0 1 25.355903,49.168258 23.812499,23.812499 0 0 1 1.5431128,25.355903 23.812499,23.812499 0 0 1 25.355903,1.5431128 Z" />
  </g>
  <g
     inkscape:groupmode="layer"
     id="layer1"
     inkscape:label="symbol"
     style="fill:#000000">
    <path
       id="path2665"
       style="fill:#000000;fill-opacity:1;stroke-width:0.264583"
       d="m 26.458333,43.656249 6.614583,-5.291667 -2.645834,-19.843749 h 9.260417 l -1.322917,-2.645834 h -9.260416 c 0.01426,-0.472868 -0.01426,-4.419023 0,-6.6145829 h -2.645833 -2.645834 c 0.01426,2.1955599 -0.01426,6.1417149 0,6.6145829 h -9.260416 l -1.322917,2.645834 h 9.260417 l -2.645834,19.843749 z m 0,-13.229167 c -0.293159,0 -0.529167,-0.236008 -0.529167,-0.529166 V 19.049999 c 0,-0.293158 0.236008,-0.529166 0.529167,-0.529166 0.293158,0 0.529166,0.236008 0.529166,0.529166 v 10.847917 c 0,0.293158 -0.236008,0.529166 -0.529166,0.529166 z" />
  </g>
</svg>
